<svg width="16" height="16" viewBox="0 0 16 16" xmlns="http://www.w3.org/2000/svg">
  <path fill="currentColor" fill-rule="evenodd" clip-rule="evenodd" d="M8 3c3.5 0 6.5 3 7.4 4.4a1 1 0 0 1 0 1.2C14.5 10 11.5 13 8 13s-6.5-3-7.4-4.4a1 1 0 0 1 0-1.2C1.5 6 4.5 3 8 3Zm0 1.5c-2.7 0-5.1 2.2-6 3.5.9 1.3 3.3 3.5 6 3.5s5.1-2.2 6-3.5c-.9-1.3-3.3-3.5-6-3.5Z"/>
  <path fill="currentColor" d="M8 6a2 2 0 1 1 0 4a2 2 0 0 1 0-4Z"/>
  <path stroke="currentColor" stroke-width="1.5" stroke-linecap="round" d="M3 13L13 3"/>
</svg>
