<svg xmlns="http://www.w3.org/2000/svg" width="16" height="16" viewBox="0 0 16 16" fill="none">
  <path d="M8 0C8.55228 0 9 0.44772 9 1V1.57869C9.65634 1.76553 10.2769 2.04439 10.8431 2.40256L11.2929 2.04938C11.6974 1.73268 12.2827 1.76908 12.6464 2.13282L13.8672 3.35358C14.2309 3.71732 14.2673 4.30263 13.9506 4.70711L13.5974 5.15691C13.9556 5.72306 14.2345 6.34366 14.4213 7H15C15.5523 7 16 7.44772 16 8C16 8.55228 15.5523 9 15 9H14.4213C14.2345 9.65634 13.9556 10.2769 13.5974 10.8431L13.9506 11.2929C14.2673 11.6974 14.2309 12.2827 13.8672 12.6464L12.6464 13.8672C12.2827 14.2309 11.6974 14.2673 11.2929 13.9506L10.8431 13.5974C10.2769 13.9556 9.65634 14.2345 9 14.4213V15C9 15.5523 8.55228 16 8 16C7.44772 16 7 15.5523 7 15V14.4213C6.34366 14.2345 5.72306 13.9556 5.15691 13.5974L4.70711 13.9506C4.30263 14.2673 3.71732 14.2309 3.35358 13.8672L2.13282 12.6464C1.76908 12.2827 1.73268 11.6974 2.04938 11.2929L2.40256 10.8431C2.04439 10.2769 1.76553 9.65634 1.57869 9H1C0.44772 9 0 8.55228 0 8C0 7.44772 0.44772 7 1 7H1.57869C1.76553 6.34366 2.04439 5.72306 2.40256 5.15691L2.04938 4.70711C1.73268 4.30263 1.76908 3.71732 2.13282 3.35358L3.35358 2.13282C3.71732 1.76908 4.30263 1.73268 4.70711 2.04938L5.15691 2.40256C5.72306 2.04439 6.34366 1.76553 7 1.57869V1C7 0.44772 7.44772 0 8 0ZM8 5C6.34315 5 5 6.34315 5 8C5 9.65685 6.34315 11 8 11C9.65685 11 11 9.65685 11 8C11 6.34315 9.65685 5 8 5Z" fill="currentColor"/>
</svg>